{
    "asset" : {
        "generator" : "Khronos glTF Blender I/O v3.2.43",
        "version" : "2.0"
    },
    "scene" : 0,
    "scenes" : [
        {
            "name" : "Scene",
            "nodes" : [
                0,
                1,
                2
            ]
        }
    ],
    "nodes" : [
        {
            "name" : "Default light",
            "translation" : [
                -0.09999998658895493,
                0,
                0
            ]
        },
        {
            "mesh" : 0,
            "name" : "\u5bf9\u8c61002",
            "rotation" : [
                -0.1786954551935196,
                -0.18731637299060822,
                -0.6841601729393005,
                0.6818397045135498
            ],
            "scale" : [
                -1.25873863697052,
                -0.6606509685516357,
                -1.25873863697052
            ],
            "translation" : [
                -1.176768183708191,
                0.8898730278015137,
                0.011726915836334229
            ]
        },
        {
            "name" : "Default light.001"
        }
    ],
    "materials" : [
        {
            "name" : "04 - Default",
            "normalTexture" : {
                "index" : 0,
                "scale" : 0.30000001192092896
            },
            "pbrMetallicRoughness" : {
                "baseColorTexture" : {
                    "index" : 1
                },
                "metallicFactor" : 0.6000000238418579,
                "roughnessFactor" : 0.30000001192092896
            }
        },
        {
            "name" : "01 - Default",
            "normalTexture" : {
                "index" : 2,
                "scale" : 0.30000001192092896
            },
            "pbrMetallicRoughness" : {
                "baseColorTexture" : {
                    "index" : 3
                },
                "metallicFactor" : 0.30000001192092896,
                "roughnessFactor" : 0.8999999761581421
            }
        },
        {
            "name" : "02 - Default",
            "pbrMetallicRoughness" : {
                "baseColorFactor" : [
                    0.11764706671237946,
                    0.11764706671237946,
                    0.11764706671237946,
                    1
                ],
                "metallicFactor" : 0.5,
                "roughnessFactor" : 0.6000000238418579
            }
        },
        {
            "name" : "03 - Default",
            "pbrMetallicRoughness" : {
                "baseColorFactor" : [
                    0.7725490927696228,
                    0.7725490927696228,
                    0.7725490927696228,
                    1
                ],
                "metallicFactor" : 0.5,
                "roughnessFactor" : 0.6000000238418579
            }
        }
    ],
    "meshes" : [
        {
            "name" : "\u5bf9\u8c61002",
            "primitives" : [
                {
                    "attributes" : {
                        "POSITION" : 0,
                        "NORMAL" : 1,
                        "TEXCOORD_0" : 2
                    },
                    "indices" : 3,
                    "material" : 0
                },
                {
                    "attributes" : {
                        "POSITION" : 4,
                        "NORMAL" : 5,
                        "TEXCOORD_0" : 6
                    },
                    "indices" : 7,
                    "material" : 1
                },
                {
                    "attributes" : {
                        "POSITION" : 8,
                        "NORMAL" : 9,
                        "TEXCOORD_0" : 10
                    },
                    "indices" : 11,
                    "material" : 2
                },
                {
                    "attributes" : {
                        "POSITION" : 12,
                        "NORMAL" : 13,
                        "TEXCOORD_0" : 14
                    },
                    "indices" : 15,
                    "material" : 3
                }
            ]
        }
    ],
    "textures" : [
        {
            "sampler" : 0,
            "source" : 0
        },
        {
            "sampler" : 0,
            "source" : 1
        },
        {
            "sampler" : 0,
            "source" : 2
        },
        {
            "sampler" : 0,
            "source" : 3
        }
    ],
    "images" : [
        {
            "bufferView" : 4,
            "mimeType" : "image/jpeg",
            "name" : "Image_0"
        },
        {
            "bufferView" : 5,
            "mimeType" : "image/jpeg",
            "name" : "Image_1"
        },
        {
            "bufferView" : 10,
            "mimeType" : "image/jpeg",
            "name" : "Image_2"
        },
        {
            "bufferView" : 11,
            "mimeType" : "image/jpeg",
            "name" : "Image_3"
        }
    ],
    "accessors" : [
        {
            "bufferView" : 0,
            "componentType" : 5126,
            "count" : 414,
            "max" : [
                1.3115352392196655,
                -0.9485968351364136,
                -1.0666791200637817
            ],
            "min" : [
                -0.392501562833786,
                -2.128643274307251,
                -2.4652414321899414
            ],
            "type" : "VEC3"
        },
        {
            "bufferView" : 1,
            "componentType" : 5126,
            "count" : 414,
            "type" : "VEC3"
        },
        {
            "bufferView" : 2,
            "componentType" : 5126,
            "count" : 414,
            "type" : "VEC2"
        },
        {
            "bufferView" : 3,
            "componentType" : 5123,
            "count" : 414,
            "type" : "SCALAR"
        },
        {
            "bufferView" : 6,
            "componentType" : 5126,
            "count" : 5184,
            "max" : [
                1.2766610383987427,
                0.7251982688903809,
                1.4922540187835693
            ],
            "min" : [
                -1.2766155004501343,
                -4.212381362915039,
                -1.4922387599945068
            ],
            "type" : "VEC3"
        },
        {
            "bufferView" : 7,
            "componentType" : 5126,
            "count" : 5184,
            "type" : "VEC3"
        },
        {
            "bufferView" : 8,
            "componentType" : 5126,
            "count" : 5184,
            "type" : "VEC2"
        },
        {
            "bufferView" : 9,
            "componentType" : 5123,
            "count" : 5184,
            "type" : "SCALAR"
        },
        {
            "bufferView" : 12,
            "componentType" : 5126,
            "count" : 51942,
            "max" : [
                1.8591029644012451,
                0.7521629333496094,
                1.4511282444000244
            ],
            "min" : [
                -1.2280824184417725,
                -4.239283084869385,
                -2.4089484214782715
            ],
            "type" : "VEC3"
        },
        {
            "bufferView" : 13,
            "componentType" : 5126,
            "count" : 51942,
            "type" : "VEC3"
        },
        {
            "bufferView" : 14,
            "componentType" : 5126,
            "count" : 51942,
            "type" : "VEC2"
        },
        {
            "bufferView" : 15,
            "componentType" : 5123,
            "count" : 51942,
            "type" : "SCALAR"
        },
        {
            "bufferView" : 16,
            "componentType" : 5126,
            "count" : 19872,
            "max" : [
                2.02701473236084,
                0.774120032787323,
                1.3896547555923462
            ],
            "min" : [
                -1.1626776456832886,
                -4.26123046875,
                -2.4944188594818115
            ],
            "type" : "VEC3"
        },
        {
            "bufferView" : 17,
            "componentType" : 5126,
            "count" : 19872,
            "type" : "VEC3"
        },
        {
            "bufferView" : 18,
            "componentType" : 5126,
            "count" : 19872,
            "type" : "VEC2"
        },
        {
            "bufferView" : 19,
            "componentType" : 5123,
            "count" : 19872,
            "type" : "SCALAR"
        }
    ],
    "bufferViews" : [
        {
            "buffer" : 0,
            "byteLength" : 4968,
            "byteOffset" : 0
        },
        {
            "buffer" : 0,
            "byteLength" : 4968,
            "byteOffset" : 4968
        },
        {
            "buffer" : 0,
            "byteLength" : 3312,
            "byteOffset" : 9936
        },
        {
            "buffer" : 0,
            "byteLength" : 828,
            "byteOffset" : 13248
        },
        {
            "buffer" : 0,
            "byteLength" : 25236,
            "byteOffset" : 14076
        },
        {
            "buffer" : 0,
            "byteLength" : 20202,
            "byteOffset" : 39312
        },
        {
            "buffer" : 0,
            "byteLength" : 62208,
            "byteOffset" : 59516
        },
        {
            "buffer" : 0,
            "byteLength" : 62208,
            "byteOffset" : 121724
        },
        {
            "buffer" : 0,
            "byteLength" : 41472,
            "byteOffset" : 183932
        },
        {
            "buffer" : 0,
            "byteLength" : 10368,
            "byteOffset" : 225404
        },
        {
            "buffer" : 0,
            "byteLength" : 124675,
            "byteOffset" : 235772
        },
        {
            "buffer" : 0,
            "byteLength" : 45109,
            "byteOffset" : 360448
        },
        {
            "buffer" : 0,
            "byteLength" : 623304,
            "byteOffset" : 405560
        },
        {
            "buffer" : 0,
            "byteLength" : 623304,
            "byteOffset" : 1028864
        },
        {
            "buffer" : 0,
            "byteLength" : 415536,
            "byteOffset" : 1652168
        },
        {
            "buffer" : 0,
            "byteLength" : 103884,
            "byteOffset" : 2067704
        },
        {
            "buffer" : 0,
            "byteLength" : 238464,
            "byteOffset" : 2171588
        },
        {
            "buffer" : 0,
            "byteLength" : 238464,
            "byteOffset" : 2410052
        },
        {
            "buffer" : 0,
            "byteLength" : 158976,
            "byteOffset" : 2648516
        },
        {
            "buffer" : 0,
            "byteLength" : 39744,
            "byteOffset" : 2807492
        }
    ],
    "samplers" : [
        {
            "magFilter" : 9729,
            "minFilter" : 9987
        }
    ],
    "buffers" : [
        {
            "byteLength" : 2847236,
            "uri" : "data:application/octet-stream;base64,"
        }
    ]
}
