{"asset":{"version":"2.0","generator":"babylon.js glTF exporter for 3dsmax 2018 v20201223.2"},"scene":0,"scenes":[{"nodes":[0,1]}],"nodes":[{"mesh":0,"scale":[0.0139896367,0.0139896367,0.0139896367],"name":"Obj3d66-1445870-1-735"},{"name":"Default light"}],"meshes":[{"primitives":[{"attributes":{"POSITION":1,"TANGENT":2,"NORMAL":3,"TEXCOORD_0":4},"indices":0,"material":0},{"attributes":{"POSITION":6,"TANGENT":7,"NORMAL":8,"TEXCOORD_0":9},"indices":5,"material":1},{"attributes":{"POSITION":11,"TANGENT":12,"NORMAL":13,"TEXCOORD_0":14},"indices":10,"material":2},{"attributes":{"POSITION":16,"TANGENT":17,"NORMAL":18,"TEXCOORD_0":19},"indices":15,"material":3},{"attributes":{"POSITION":21,"TANGENT":22,"NORMAL":23,"TEXCOORD_0":24},"indices":20,"material":4},{"attributes":{"POSITION":26,"TANGENT":27,"NORMAL":28,"TEXCOORD_0":29},"indices":25,"material":5},{"attributes":{"POSITION":31,"TANGENT":32,"NORMAL":33,"TEXCOORD_0":34},"indices":30,"material":6},{"attributes":{"POSITION":36,"TANGENT":37,"NORMAL":38,"TEXCOORD_0":39},"indices":35,"material":7},{"attributes":{"POSITION":41,"TANGENT":42,"NORMAL":43,"TEXCOORD_0":44},"indices":40,"material":8},{"attributes":{"POSITION":46,"TANGENT":47,"NORMAL":48,"TEXCOORD_0":49},"indices":45,"material":9},{"attributes":{"POSITION":51,"TANGENT":52,"NORMAL":53,"TEXCOORD_0":54},"indices":50,"material":10},{"attributes":{"POSITION":56,"TANGENT":57,"NORMAL":58,"TEXCOORD_0":59},"indices":55,"material":11},{"attributes":{"POSITION":61,"TANGENT":62,"NORMAL":63,"TEXCOORD_0":64},"indices":60,"material":12}],"name":"Obj3d66-1445870-1-735"}],"accessors":[{"bufferView":0,"componentType":5125,"count":59124,"type":"SCALAR","name":"accessorIndices"},{"bufferView":1,"componentType":5126,"count":59124,"max":[127.211052,174.020142,153.801788],"min":[-127.210648,-123.14769,-640.596069],"type":"VEC3","name":"accessorPositions"},{"bufferView":2,"componentType":5126,"count":59124,"type":"VEC4","name":"accessorTangents"},{"bufferView":1,"byteOffset":709488,"componentType":5126,"count":59124,"type":"VEC3","name":"accessorNormals"},{"bufferView":3,"componentType":5126,"count":59124,"type":"VEC2","name":"accessorUVs"},{"bufferView":0,"byteOffset":236496,"componentType":5125,"count":3528,"type":"SCALAR","name":"accessorIndices"},{"bufferView":1,"byteOffset":1418976,"componentType":5126,"count":3528,"max":[109.449936,-65.21981,150.901443],"min":[-109.450073,-83.25144,138.691833],"type":"VEC3","name":"accessorPositions"},{"bufferView":2,"byteOffset":945984,"componentType":5126,"count":3528,"type":"VEC4","name":"accessorTangents"},{"bufferView":1,"byteOffset":1461312,"componentType":5126,"count":3528,"type":"VEC3","name":"accessorNormals"},{"bufferView":3,"byteOffset":472992,"componentType":5126,"count":3528,"type":"VEC2","name":"accessorUVs"},{"bufferView":0,"byteOffset":250608,"componentType":5125,"count":149049,"type":"SCALAR","name":"accessorIndices"},{"bufferView":1,"byteOffset":1503648,"componentType":5126,"count":149049,"max":[147.413071,179.256958,157.296814],"min":[-147.4131,-129.186417,-645.109],"type":"VEC3","name":"accessorPositions"},{"bufferView":2,"byteOffset":1002432,"componentType":5126,"count":149049,"type":"VEC4","name":"accessorTangents"},{"bufferView":1,"byteOffset":3292236,"componentType":5126,"count":149049,"type":"VEC3","name":"accessorNormals"},{"bufferView":3,"byteOffset":501216,"componentType":5126,"count":149049,"type":"VEC2","name":"accessorUVs"},{"bufferView":0,"byteOffset":846804,"componentType":5125,"count":8157,"type":"SCALAR","name":"accessorIndices"},{"bufferView":1,"byteOffset":5080824,"componentType":5126,"count":8157,"max":[108.560516,139.12529,149.409927],"min":[-108.560654,-103.704369,-633.1262],"type":"VEC3","name":"accessorPositions"},{"bufferView":2,"byteOffset":3387216,"componentType":5126,"count":8157,"type":"VEC4","name":"accessorTangents"},{"bufferView":1,"byteOffset":5178708,"componentType":5126,"count":8157,"type":"VEC3","name":"accessorNormals"},{"bufferView":3,"byteOffset":1693608,"componentType":5126,"count":8157,"type":"VEC2","name":"accessorUVs"},{"bufferView":0,"byteOffset":879432,"componentType":5125,"count":121878,"type":"SCALAR","name":"accessorIndices"},{"bufferView":1,"byteOffset":5276592,"componentType":5126,"count":121878,"max":[127.609428,176.9466,38.4600258],"min":[-127.609444,-143.4452,-661.8839],"type":"VEC3","name":"accessorPositions"},{"bufferView":2,"byteOffset":3517728,"componentType":5126,"count":121878,"type":"VEC4","name":"accessorTangents"},{"bufferView":1,"byteOffset":6739128,"componentType":5126,"count":121878,"type":"VEC3","name":"accessorNormals"},{"bufferView":3,"byteOffset":1758864,"componentType":5126,"count":121878,"type":"VEC2","name":"accessorUVs"},{"bufferView":0,"byteOffset":1366944,"componentType":5125,"count":3936,"type":"SCALAR","name":"accessorIndices"},{"bufferView":1,"byteOffset":8201664,"componentType":5126,"count":3936,"max":[122.360664,137.702637,117.650208],"min":[-122.360962,-115.367638,-640.8499],"type":"VEC3","name":"accessorPositions"},{"bufferView":2,"byteOffset":5467776,"componentType":5126,"count":3936,"type":"VEC4","name":"accessorTangents"},{"bufferView":1,"byteOffset":8248896,"componentType":5126,"count":3936,"type":"VEC3","name":"accessorNormals"},{"bufferView":3,"byteOffset":2733888,"componentType":5126,"count":3936,"type":"VEC2","name":"accessorUVs"},{"bufferView":0,"byteOffset":1382688,"componentType":5125,"count":27354,"type":"SCALAR","name":"accessorIndices"},{"bufferView":1,"byteOffset":8296128,"componentType":5126,"count":27354,"max":[118.805954,155.621948,-32.8524437],"min":[-106.606659,-111.449646,-658.132446],"type":"VEC3","name":"accessorPositions"},{"bufferView":2,"byteOffset":5530752,"componentType":5126,"count":27354,"type":"VEC4","name":"accessorTangents"},{"bufferView":1,"byteOffset":8624376,"componentType":5126,"count":27354,"type":"VEC3","name":"accessorNormals"},{"bufferView":3,"byteOffset":2765376,"componentType":5126,"count":27354,"type":"VEC2","name":"accessorUVs"},{"bufferView":0,"byteOffset":1492104,"componentType":5125,"count":17412,"type":"SCALAR","name":"accessorIndices"},{"bufferView":1,"byteOffset":8952624,"componentType":5126,"count":17412,"max":[129.638092,124.277161,147.535187],"min":[-129.638428,-90.6288147,-653.025146],"type":"VEC3","name":"accessorPositions"},{"bufferView":2,"byteOffset":5968416,"componentType":5126,"count":17412,"type":"VEC4","name":"accessorTangents"},{"bufferView":1,"byteOffset":9161568,"componentType":5126,"count":17412,"type":"VEC3","name":"accessorNormals"},{"bufferView":3,"byteOffset":2984208,"componentType":5126,"count":17412,"type":"VEC2","name":"accessorUVs"},{"bufferView":0,"byteOffset":1561752,"componentType":5125,"count":9216,"type":"SCALAR","name":"accessorIndices"},{"bufferView":1,"byteOffset":9370512,"componentType":5126,"count":9216,"max":[97.52414,141.743439,129.0394],"min":[-97.4388,116.02697,-637.035645],"type":"VEC3","name":"accessorPositions"},{"bufferView":2,"byteOffset":6247008,"componentType":5126,"count":9216,"type":"VEC4","name":"accessorTangents"},{"bufferView":1,"byteOffset":9481104,"componentType":5126,"count":9216,"type":"VEC3","name":"accessorNormals"},{"bufferView":3,"byteOffset":3123504,"componentType":5126,"count":9216,"type":"VEC2","name":"accessorUVs"},{"bufferView":0,"byteOffset":1598616,"componentType":5125,"count":372,"type":"SCALAR","name":"accessorIndices"},{"bufferView":1,"byteOffset":9591696,"componentType":5126,"count":372,"max":[112.039841,103.7763,141.5313],"min":[-112.039978,100.711693,136.4826],"type":"VEC3","name":"accessorPositions"},{"bufferView":2,"byteOffset":6394464,"componentType":5126,"count":372,"type":"VEC4","name":"accessorTangents"},{"bufferView":1,"byteOffset":9596160,"componentType":5126,"count":372,"type":"VEC3","name":"accessorNormals"},{"bufferView":3,"byteOffset":3197232,"componentType":5126,"count":372,"type":"VEC2","name":"accessorUVs"},{"bufferView":0,"byteOffset":1600104,"componentType":5125,"count":17643,"type":"SCALAR","name":"accessorIndices"},{"bufferView":1,"byteOffset":9600624,"componentType":5126,"count":17643,"max":[146.710129,67.76438,150.338],"min":[-146.710159,-131.368271,-10.6849461],"type":"VEC3","name":"accessorPositions"},{"bufferView":2,"byteOffset":6400416,"componentType":5126,"count":17643,"type":"VEC4","name":"accessorTangents"},{"bufferView":1,"byteOffset":9812340,"componentType":5126,"count":17643,"type":"VEC3","name":"accessorNormals"},{"bufferView":3,"byteOffset":3200208,"componentType":5126,"count":17643,"type":"VEC2","name":"accessorUVs"},{"bufferView":0,"byteOffset":1670676,"componentType":5125,"count":3048,"type":"SCALAR","name":"accessorIndices"},{"bufferView":1,"byteOffset":10024056,"componentType":5126,"count":3048,"max":[32.9436951,5.6681056,153.870956],"min":[-32.7972145,-4.974928,153.094086],"type":"VEC3","name":"accessorPositions"},{"bufferView":2,"byteOffset":6682704,"componentType":5126,"count":3048,"type":"VEC4","name":"accessorTangents"},{"bufferView":1,"byteOffset":10060632,"componentType":5126,"count":3048,"type":"VEC3","name":"accessorNormals"},{"bufferView":3,"byteOffset":3341352,"componentType":5126,"count":3048,"type":"VEC2","name":"accessorUVs"},{"bufferView":0,"byteOffset":1682868,"componentType":5125,"count":20520,"type":"SCALAR","name":"accessorIndices"},{"bufferView":1,"byteOffset":10097208,"componentType":5126,"count":20520,"max":[125.670471,-59.7271538,61.3508034],"min":[-125.670479,-166.204208,-472.177948],"type":"VEC3","name":"accessorPositions"},{"bufferView":2,"byteOffset":6731472,"componentType":5126,"count":20520,"type":"VEC4","name":"accessorTangents"},{"bufferView":1,"byteOffset":10343448,"componentType":5126,"count":20520,"type":"VEC3","name":"accessorNormals"},{"bufferView":3,"byteOffset":3365736,"componentType":5126,"count":20520,"type":"VEC2","name":"accessorUVs"}],"bufferViews":[{"buffer":0,"byteLength":1764948,"name":"bufferViewScalar"},{"buffer":0,"byteOffset":1764948,"byteLength":10589688,"byteStride":12,"name":"bufferViewFloatVec3"},{"buffer":0,"byteOffset":12354636,"byteLength":7059792,"byteStride":16,"name":"bufferViewFloatVec4"},{"buffer":0,"byteOffset":19414428,"byteLength":3529896,"byteStride":8,"name":"bufferViewFloatVec2"}],"buffers":[{"uri":"xfc.bin","byteLength":22944324}],"materials":[{"pbrMetallicRoughness":{"baseColorTexture":{"index":0},"metallicFactor":0.0,"roughnessFactor":0.450053632},"name":"Material #2234012"},{"pbrMetallicRoughness":{"baseColorTexture":{"index":1},"metallicFactor":0.0,"roughnessFactor":0.450053632},"name":"Material #2234090"},{"pbrMetallicRoughness":{"baseColorFactor":[0.0235294141,0.0235294141,0.0235294141,1.0],"metallicFactor":0.0,"roughnessFactor":0.450053632},"name":"01 - Default"},{"pbrMetallicRoughness":{"baseColorFactor":[0.588,0.588,0.588,1.0],"metallicFactor":0.0,"roughnessFactor":0.450053632},"name":"Material #2234006"},{"pbrMetallicRoughness":{"baseColorFactor":[0.5882353,0.5882353,0.5882353,1.0],"metallicFactor":0.0,"roughnessFactor":0.450053632},"name":"02 - Default"},{"pbrMetallicRoughness":{"baseColorTexture":{"index":2},"metallicFactor":0.0,"roughnessFactor":0.450053632},"name":"Material #2234156"},{"pbrMetallicRoughness":{"baseColorFactor":[0.588,0.588,0.588,1.0],"metallicFactor":0.0,"roughnessFactor":0.450053632},"name":"Material #2234010"},{"pbrMetallicRoughness":{"baseColorFactor":[0.588,0.588,0.588,1.0],"metallicFactor":0.0,"roughnessFactor":0.450053632},"name":"Material #2234011"},{"pbrMetallicRoughness":{"baseColorFactor":[0.941176534,0.164705887,0.164705887,0.7],"metallicFactor":0.0,"roughnessFactor":0.450053632},"alphaMode":"BLEND","doubleSided":true,"name":"03 - Default"},{"pbrMetallicRoughness":{"baseColorFactor":[0.588,0.588,0.588,1.0],"metallicFactor":0.0,"roughnessFactor":0.450053632},"name":"Material #2234036"},{"pbrMetallicRoughness":{"baseColorFactor":[0.588,0.588,0.588,1.0],"metallicFactor":0.0,"roughnessFactor":0.450053632},"name":"Material #2234037"},{"pbrMetallicRoughness":{"baseColorFactor":[0.588,0.588,0.588,1.0],"metallicFactor":0.0,"roughnessFactor":0.450053632},"name":"Material #2234038"},{"pbrMetallicRoughness":{"baseColorTexture":{"index":3},"metallicFactor":0.0,"roughnessFactor":0.450053632},"name":"Material #2234024"}],"textures":[{"sampler":0,"source":0,"name":"3d66Model-1445870-files-1.png"},{"sampler":0,"source":1,"name":"3d66Model-1445870-files-10.jpg"},{"sampler":0,"source":2,"name":"3d66Model-1445870-files-2.png"},{"sampler":0,"source":3,"name":"3d66Model-1445870-files-7.png"}],"images":[{"uri":"./3d66Model-1445870-files-1.png"},{"uri":"./3d66Model-1445870-files-10.jpg"},{"uri":"./3d66Model-1445870-files-2.png"},{"uri":"./3d66Model-1445870-files-7.png"}],"samplers":[{"magFilter":9729,"minFilter":9987}]}